<mxfile host="app.diagrams.net" modified="2021-01-28T11:50:36.512Z" agent="5.0 (Windows NT 10.0; Win64; x64) AppleWebKit/537.36 (KHTML, like Gecko) Chrome/87.0.4280.88 Safari/537.36" etag="kaDarQu5Z7PbGUBVZI_L" version="14.2.7" type="github">
  <diagram id="itdqSfkn_E8UObM0tBDS" name="Page-1">
    <mxGraphModel dx="1422" dy="706" grid="1" gridSize="10" guides="1" tooltips="1" connect="1" arrows="1" fold="1" page="1" pageScale="1" pageWidth="827" pageHeight="1169" math="0" shadow="0">
      <root>
        <mxCell id="0" />
        <mxCell id="1" parent="0" />
        <mxCell id="0rGHmdVna2pGi717BPub-1" value="纪元组件" style="rounded=1;whiteSpace=wrap;html=1;" vertex="1" parent="1">
          <mxGeometry x="360" y="120" width="120" height="40" as="geometry" />
        </mxCell>
        <mxCell id="0rGHmdVna2pGi717BPub-2" value="组件前置校验" style="rounded=0;whiteSpace=wrap;html=1;" vertex="1" parent="1">
          <mxGeometry x="360" y="200" width="120" height="40" as="geometry" />
        </mxCell>
        <mxCell id="0rGHmdVna2pGi717BPub-3" value="1.校验文件类型" style="text;html=1;strokeColor=none;fillColor=none;align=center;verticalAlign=middle;whiteSpace=wrap;rounded=0;" vertex="1" parent="1">
          <mxGeometry x="530" y="201" width="190" height="50" as="geometry" />
        </mxCell>
        <mxCell id="0rGHmdVna2pGi717BPub-4" value="2.校验文件大小2M&lt;br&gt;3.1000行校验&amp;nbsp; &amp;nbsp; &amp;nbsp; &amp;nbsp;&amp;nbsp;" style="text;html=1;strokeColor=none;fillColor=none;align=center;verticalAlign=middle;whiteSpace=wrap;rounded=0;" vertex="1" parent="1">
          <mxGeometry x="539" y="220" width="190" height="50" as="geometry" />
        </mxCell>
        <mxCell id="0rGHmdVna2pGi717BPub-5" value="通过批量查询订单号接口" style="rhombus;whiteSpace=wrap;html=1;" vertex="1" parent="1">
          <mxGeometry x="360" y="360" width="120" height="80" as="geometry" />
        </mxCell>
        <mxCell id="0rGHmdVna2pGi717BPub-6" value="数据分批" style="rounded=0;whiteSpace=wrap;html=1;" vertex="1" parent="1">
          <mxGeometry x="360" y="280" width="120" height="40" as="geometry" />
        </mxCell>
        <mxCell id="0rGHmdVna2pGi717BPub-9" value="未付款" style="rounded=0;whiteSpace=wrap;html=1;" vertex="1" parent="1">
          <mxGeometry x="120" y="640" width="80" height="40" as="geometry" />
        </mxCell>
        <mxCell id="0rGHmdVna2pGi717BPub-11" value="&#xa;&#xa;&lt;span style=&quot;color: rgb(0, 0, 0); font-family: helvetica; font-size: 12px; font-style: normal; font-weight: 400; letter-spacing: normal; text-align: center; text-indent: 0px; text-transform: none; word-spacing: 0px; background-color: rgb(248, 249, 250); display: inline; float: none;&quot;&gt;根据订单状态判断&lt;/span&gt;&#xa;&#xa;" style="rounded=0;whiteSpace=wrap;html=1;" vertex="1" parent="1">
          <mxGeometry x="360" y="520" width="120" height="40" as="geometry" />
        </mxCell>
        <mxCell id="0rGHmdVna2pGi717BPub-13" value="待审核" style="rounded=0;whiteSpace=wrap;html=1;" vertex="1" parent="1">
          <mxGeometry x="240" y="640" width="80" height="40" as="geometry" />
        </mxCell>
        <mxCell id="0rGHmdVna2pGi717BPub-14" value="已付款未发货" style="rounded=0;whiteSpace=wrap;html=1;" vertex="1" parent="1">
          <mxGeometry x="360" y="640" width="80" height="40" as="geometry" />
        </mxCell>
        <mxCell id="0rGHmdVna2pGi717BPub-15" value="已发货未收货&lt;br&gt;待定需求" style="rounded=0;whiteSpace=wrap;html=1;fillColor=#f8cecc;strokeColor=#b85450;" vertex="1" parent="1">
          <mxGeometry x="480" y="640" width="80" height="40" as="geometry" />
        </mxCell>
        <mxCell id="0rGHmdVna2pGi717BPub-16" value="部分发货" style="rounded=0;whiteSpace=wrap;html=1;" vertex="1" parent="1">
          <mxGeometry x="600" y="640" width="80" height="40" as="geometry" />
        </mxCell>
        <mxCell id="0rGHmdVna2pGi717BPub-17" value="已收货" style="rounded=0;whiteSpace=wrap;html=1;" vertex="1" parent="1">
          <mxGeometry x="720" y="640" width="80" height="40" as="geometry" />
        </mxCell>
        <mxCell id="0rGHmdVna2pGi717BPub-27" style="edgeStyle=orthogonalEdgeStyle;rounded=0;orthogonalLoop=1;jettySize=auto;html=1;entryX=0.5;entryY=0;entryDx=0;entryDy=0;" edge="1" parent="1" source="0rGHmdVna2pGi717BPub-18" target="0rGHmdVna2pGi717BPub-23">
          <mxGeometry relative="1" as="geometry" />
        </mxCell>
        <mxCell id="0rGHmdVna2pGi717BPub-28" value="YES" style="edgeLabel;html=1;align=center;verticalAlign=middle;resizable=0;points=[];" vertex="1" connectable="0" parent="0rGHmdVna2pGi717BPub-27">
          <mxGeometry x="-0.4462" y="-4" relative="1" as="geometry">
            <mxPoint as="offset" />
          </mxGeometry>
        </mxCell>
        <mxCell id="0rGHmdVna2pGi717BPub-29" value="NO" style="edgeStyle=orthogonalEdgeStyle;rounded=0;orthogonalLoop=1;jettySize=auto;html=1;" edge="1" parent="1" source="0rGHmdVna2pGi717BPub-18" target="0rGHmdVna2pGi717BPub-19">
          <mxGeometry relative="1" as="geometry">
            <Array as="points">
              <mxPoint x="640" y="860" />
              <mxPoint x="640" y="860" />
            </Array>
          </mxGeometry>
        </mxCell>
        <mxCell id="0rGHmdVna2pGi717BPub-18" value="判断未发货子单" style="rhombus;whiteSpace=wrap;html=1;" vertex="1" parent="1">
          <mxGeometry x="590" y="760" width="100" height="80" as="geometry" />
        </mxCell>
        <mxCell id="0rGHmdVna2pGi717BPub-19" value="判断已发货子单" style="rhombus;whiteSpace=wrap;html=1;" vertex="1" parent="1">
          <mxGeometry x="590" y="910" width="100" height="80" as="geometry" />
        </mxCell>
        <mxCell id="0rGHmdVna2pGi717BPub-20" value="已关闭" style="rounded=0;whiteSpace=wrap;html=1;" vertex="1" parent="1">
          <mxGeometry x="840" y="640" width="80" height="40" as="geometry" />
        </mxCell>
        <mxCell id="0rGHmdVna2pGi717BPub-21" value="调用订单关闭" style="rounded=0;whiteSpace=wrap;html=1;" vertex="1" parent="1">
          <mxGeometry x="120" y="1000" width="80" height="40" as="geometry" />
        </mxCell>
        <mxCell id="0rGHmdVna2pGi717BPub-22" value="调用主单退款接口" style="rounded=0;whiteSpace=wrap;html=1;" vertex="1" parent="1">
          <mxGeometry x="240" y="1000" width="80" height="40" as="geometry" />
        </mxCell>
        <mxCell id="0rGHmdVna2pGi717BPub-23" value="调用平批量退款接扣" style="rounded=0;whiteSpace=wrap;html=1;" vertex="1" parent="1">
          <mxGeometry x="360" y="1000" width="80" height="40" as="geometry" />
        </mxCell>
        <mxCell id="0rGHmdVna2pGi717BPub-24" value="买家已收货无法拦截" style="rounded=0;whiteSpace=wrap;html=1;" vertex="1" parent="1">
          <mxGeometry x="720" y="1000" width="80" height="40" as="geometry" />
        </mxCell>
        <mxCell id="0rGHmdVna2pGi717BPub-25" value="订单已关闭无法拦截" style="rounded=0;whiteSpace=wrap;html=1;" vertex="1" parent="1">
          <mxGeometry x="840" y="1000" width="80" height="40" as="geometry" />
        </mxCell>
        <mxCell id="0rGHmdVna2pGi717BPub-26" value="得到一个拦截结果" style="rounded=0;whiteSpace=wrap;html=1;" vertex="1" parent="1">
          <mxGeometry x="400" y="1160" width="80" height="40" as="geometry" />
        </mxCell>
      </root>
    </mxGraphModel>
  </diagram>
</mxfile>
